<svg width="688" height="217" viewBox="0 0 688 217" fill="none" xmlns="http://www.w3.org/2000/svg">
<path d="M231.484 169V45.25H265.023C274.023 45.25 280.562 47.4531 284.641 51.8594C288.766 56.2188 290.828 63.4375 290.828 73.5156V78.9297C290.828 84.7422 289.773 89.4531 287.664 93.0625C285.602 96.6719 282.438 99.0391 278.172 100.164C283.75 101.57 287.477 104.875 289.352 110.078C291.273 115.234 292.234 121.539 292.234 128.992C292.234 137.008 291.484 144.016 289.984 150.016C288.484 156.016 285.766 160.68 281.828 164.008C277.891 167.336 272.289 169 265.023 169H231.484ZM255.672 91.8672H260.734C263.031 91.8672 264.508 90.9766 265.164 89.1953C265.82 87.4141 266.148 85.2812 266.148 82.7969V70.3516C266.148 66.3672 264.391 64.375 260.875 64.375H255.672V91.8672ZM258.133 147.203C264.555 147.203 267.766 144.156 267.766 138.062V122.594C267.766 119.078 267.227 116.312 266.148 114.297C265.117 112.234 263.148 111.203 260.242 111.203H255.672V147.062C256.703 147.156 257.523 147.203 258.133 147.203ZM314.228 57.0625V36.1094H339.4V57.0625H314.228ZM314.228 169V63.5312H339.4V169H314.228ZM363.784 169V63.5312H388.956V76.9609C389.894 72.9297 391.628 69.5078 394.159 66.6953C396.738 63.8359 400.3 62.4062 404.847 62.4062C412.159 62.4062 417.456 64.6562 420.738 69.1562C424.066 73.6562 425.73 79.8203 425.73 87.6484V169H400.909V90.25C400.909 88.1875 400.488 86.2891 399.644 84.5547C398.8 82.7734 397.347 81.8828 395.284 81.8828C393.363 81.8828 391.933 82.5625 390.995 83.9219C390.105 85.2344 389.542 86.8984 389.308 88.9141C389.073 90.8828 388.956 92.8516 388.956 94.8203V169H363.784ZM448.848 168.93V147.977H474.02V168.93H448.848ZM494.538 169V146.5L522.873 68.0312H497.28V45.25H548.959V66.9062L520.131 146.219H547.764V169H494.538ZM570.672 57.0625V36.1094H595.844V57.0625H570.672ZM570.672 169V63.5312H595.844V169H570.672ZM620.228 186.578V63.5312H645.822V74.7812C647.369 70.8906 649.502 67.8672 652.22 65.7109C654.986 63.5078 658.923 62.4062 664.033 62.4062C670.923 62.4062 675.775 64.9141 678.587 69.9297C681.447 74.9453 682.877 81.5078 682.877 89.6172V141.508C682.877 146.898 682.103 151.773 680.556 156.133C679.056 160.445 676.666 163.867 673.384 166.398C670.15 168.883 665.908 170.125 660.658 170.125C653.814 170.125 648.869 166 645.822 157.75V186.578H620.228ZM651.798 150.508C654.423 150.508 655.994 149.195 656.509 146.57C657.072 143.945 657.353 140.711 657.353 136.867V95.6641C657.353 91.7734 657.072 88.5391 656.509 85.9609C655.994 83.3359 654.423 82.0234 651.798 82.0234C649.08 82.0234 647.392 83.3594 646.736 86.0312C646.127 88.6562 645.822 91.8672 645.822 95.6641V136.867C645.822 140.664 646.127 143.898 646.736 146.57C647.392 149.195 649.08 150.508 651.798 150.508Z" fill="white"/>
<rect y="14" width="180" height="180" rx="40" fill="white"/>
<path d="M79.4713 46.2288C78.7352 44.2854 76.8737 43 74.7956 43L25 43C22.2386 43 20 45.2386 20 48V136.778C20 139.539 22.2386 141.778 25 141.778H108.426C111.924 141.778 114.341 138.278 113.102 135.007L79.4713 46.2288Z" fill="#191A2C"/>
<rect x="20" y="54.6666" width="140" height="110.444" rx="5" fill="#191A2C"/>
<rect x="20" y="67.8889" width="140" height="93.3333" rx="5" fill="#3F3F4E"/>
<path d="M81.4254 61.3123C82.2738 59.6223 84.0029 58.5555 85.8939 58.5555L155 58.5555C157.761 58.5555 160 60.7941 160 63.5555V152.333C160 155.095 157.761 157.333 155 157.333H41.3269C37.6065 157.333 35.1892 153.415 36.8584 150.09L81.4254 61.3123Z" fill="#3F3F4E"/>
</svg>
